 <svg version="1.0" xmlns="http://www.w3.org/2000/svg"  width="450.000000pt" height="450.000000pt" viewBox="0 0 450.000000 450.000000"  preserveAspectRatio="xMidYMid meet">  <g transform="translate(0.000000,450.000000) scale(0.100000,-0.100000)" fill="#ffffff" stroke="none"> <path d="M1690 3625 c-12 -14 -25 -136 -44 -400 -3 -44 -19 -249 -36 -455 -17 -206 -33 -432 -37 -502 -7 -142 -2 -134 -81 -129 -18 2 -39 -3 -47 -9 -13 -10 -15 -8 -15 17 0 44 -30 67 -77 60 -26 -4 -44 -1 -57 8 -25 19 -50 19 -66 0 -10 -12 -36 -15 -116 -15 -135 0 -134 1 -131 -168 2 -109 4 -125 21 -138 42 -31 96 -2 96 51 0 21 5 25 28 25 15 0 37 3 50 6 19 6 22 3 22 -23 0 -51 71 -93 100 -58 9 11 16 11 40 -3 27 -16 31 -16 58 0 26 16 31 16 42 3 18 -22 54 -18 77 8 13 14 21 39 22 72 4 68 11 71 11 3 0 -44 4 -59 23 -76 52 -49 97 -13 97 75 0 29 5 53 10 53 6 0 10 -24 10 -53 0 -84 45 -123 92 -80 17 15 19 15 36 0 13 -12 37 -17 77 -17 75 0 131 17 164 51 l27 27 32 -34 c46 -48 139 -58 172 -19 9 11 15 10 31 -6 15 -15 33 -19 97 -19 80 0 102 9 113 48 3 10 9 8 24 -5 54 -49 132 -57 189 -18 l36 24 36 -24 c54 -37 124 -29 164 20 12 14 14 13 24 -6 19 -37 42 -46 74 -29 23 14 27 23 30 70 4 76 22 90 22 17 0 -62 22 -97 60 -97 38 0 60 35 60 96 0 34 4 53 10 49 6 -3 10 -30 10 -59 0 -57 19 -86 57 -86 38 0 53 31 53 109 0 114 -37 159 -121 147 -24 -3 -48 -5 -54 -5 -5 0 -47 2 -92 5 -77 4 -83 2 -100 -19 l-17 -24 -34 24 c-41 27 -99 30 -143 8 -32 -17 -69 -69 -69 -98 0 -10 -4 -15 -10 -12 -5 3 -22 0 -37 -8 -16 -8 -39 -11 -53 -7 -20 5 -25 12 -25 39 0 47 22 59 75 41 42 -14 43 -13 66 14 27 31 28 35 11 56 -27 35 -62 50 -115 50 l-54 0 6 58 c4 31 15 174 26 317 25 323 29 372 35 460 9 119 15 186 25 290 15 163 13 223 -9 234 -21 12 -51 -13 -51 -43 0 -32 -43 -15 -52 20 -4 18 -14 34 -22 37 -26 10 -45 -27 -52 -102 l-7 -73 -66 6 c-36 3 -100 8 -141 11 -41 3 -154 12 -250 20 -96 8 -178 15 -182 15 -4 0 -5 34 -1 75 4 53 2 79 -7 90 -19 23 -39 18 -58 -15 -21 -36 -52 -40 -52 -7 0 42 -36 61 -60 32z m33 -50 c-6 -34 -5 -35 30 -35 19 0 42 -3 51 -6 13 -5 16 1 16 28 0 19 3 38 6 41 16 16 20 -8 12 -84 -5 -45 -5 -86 -1 -90 10 -10 669 -63 689 -55 10 4 14 23 14 68 0 35 3 73 6 86 10 36 26 25 22 -15 l-3 -38 48 -3 c46 -3 47 -3 47 27 0 26 15 50 25 39 2 -2 0 -49 -5 -103 -5 -55 -16 -192 -25 -305 -57 -734 -76 -964 -83 -974 -3 -6 2 -6 14 -1 43 19 118 17 153 -5 33 -21 33 -21 12 -36 -15 -11 -26 -12 -40 -4 -48 25 -103 7 -120 -40 -26 -75 54 -138 118 -94 21 15 24 15 43 -3 20 -20 20 -20 -26 -43 -61 -29 -117 -21 -163 25 -28 28 -33 40 -33 82 0 28 7 58 16 71 9 13 14 25 13 26 -2 2 -25 6 -50 9 -41 6 -47 4 -52 -13 -4 -16 0 -20 19 -20 37 0 30 -27 -27 -92 l-50 -58 50 0 c44 0 51 -3 51 -20 0 -18 -7 -20 -85 -20 -104 0 -107 7 -34 91 l51 59 -51 0 c-44 0 -51 3 -51 20 0 18 7 20 55 20 l55 0 0 53 c0 28 3 62 6 74 6 20 2 21 -78 28 -45 3 -206 16 -355 28 l-273 22 0 -40 c0 -64 -12 -145 -21 -145 -5 0 -9 18 -9 40 l0 40 -50 0 -50 0 0 -35 c0 -19 -5 -35 -11 -35 -8 0 -9 19 -5 63 3 34 13 148 21 252 8 105 28 363 45 575 17 212 33 426 36 475 6 102 10 119 23 110 5 -3 7 -21 4 -40z m407 -1325 c135 -11 253 -20 263 -20 14 0 17 -9 17 -45 l0 -45 -37 0 c-20 0 -44 -7 -54 -16 -16 -15 -20 -15 -41 0 -33 24 -109 21 -143 -5 l-27 -22 -38 41 c-47 52 -73 62 -162 62 -89 0 -108 -14 -108 -79 l0 -46 -20 25 c-20 26 -25 74 -14 143 l7 38 56 -6 c31 -3 166 -14 301 -25z m-841 -64 c17 -20 2 -46 -25 -46 -26 0 -40 20 -30 45 7 19 40 20 55 1z m111 -136 l0 -130 -30 0 -30 0 0 130 0 130 30 0 30 0 0 -130z m280 110 c0 -11 -4 -20 -9 -20 -5 0 -16 -3 -24 -6 -11 -4 -13 1 -10 20 6 32 43 37 43 6z m-480 -15 c0 -24 -2 -25 -65 -25 l-65 0 0 -33 0 -33 60 4 c59 4 60 4 60 -22 0 -25 -2 -26 -60 -26 l-60 0 0 -45 c0 -43 -1 -45 -30 -45 l-30 0 0 125 0 125 95 0 c95 0 95 0 95 -25z m804 11 c48 -20 76 -61 76 -110 -1 -90 -49 -126 -167 -126 l-83 0 0 125 0 125 70 0 c39 0 85 -6 104 -14z m-714 -141 l0 -95 -30 0 -30 0 0 95 0 95 30 0 30 0 0 -95z m210 85 c0 -7 6 -7 19 0 28 15 77 12 91 -5 11 -13 15 -13 33 0 12 8 38 15 58 15 54 0 71 -25 77 -115 l5 -75 -32 0 c-31 0 -31 0 -31 54 0 69 -7 86 -34 86 -35 0 -46 -20 -46 -82 0 -58 0 -58 -30 -58 -29 0 -29 0 -32 68 l-3 67 -30 0 -30 0 -3 -67 c-3 -68 -3 -68 -32 -68 l-30 0 0 95 c0 95 0 95 25 95 14 0 25 -5 25 -10z m774 -12 c15 -13 29 -37 32 -55 l6 -32 -78 -3 c-74 -3 -77 -4 -60 -20 19 -20 66 -24 82 -8 7 7 16 4 28 -9 17 -19 17 -20 -1 -30 -45 -24 -118 -17 -148 14 -19 18 -25 35 -25 67 0 24 6 50 13 59 34 44 110 53 151 17z m687 -7 c39 -40 40 -89 1 -133 -25 -27 -36 -31 -77 -31 -41 0 -52 4 -77 31 -61 69 -17 162 77 162 38 0 52 -5 76 -29z m119 17 c0 -9 3 -9 12 0 17 17 83 15 98 -3 12 -14 15 -14 30 0 21 19 80 20 106 1 15 -12 20 -30 24 -95 l5 -81 -27 0 c-27 0 -28 2 -28 54 0 72 -6 86 -40 86 -34 0 -40 -14 -40 -86 0 -53 0 -54 -30 -54 -29 0 -29 0 -32 68 -3 64 -4 67 -30 70 -35 4 -51 -25 -46 -89 3 -48 2 -49 -24 -49 l-28 0 0 95 c0 95 0 95 25 95 14 0 25 -5 25 -12z m-720 -72 c0 -3 -4 -8 -10 -11 -5 -3 -10 -1 -10 4 0 6 5 11 10 11 6 0 10 -2 10 -4z m136 -33 c-10 -10 -19 5 -10 18 6 11 8 11 12 0 2 -7 1 -15 -2 -18z"/> <path d="M1715 3447 c-4 -13 -5 -43 -3 -68 l3 -44 39 0 c37 0 40 3 48 34 5 18 8 47 6 65 -3 29 -6 31 -45 34 -37 3 -43 0 -48 -21z m65 -31 c0 -35 -10 -56 -26 -56 -10 0 -14 12 -14 40 0 33 3 40 20 40 14 0 20 -7 20 -24z"/> <path d="M2572 3402 c-7 -5 -15 -32 -19 -60 -7 -61 6 -82 48 -82 35 0 49 24 49 84 0 35 -5 48 -19 56 -23 12 -41 13 -59 2z m46 -69 c-2 -26 -8 -38 -18 -38 -10 0 -16 12 -18 38 -3 32 0 37 18 37 18 0 21 -5 18 -37z"/> <path d="M1982 3340 c-26 -56 -74 -95 -133 -105 l-36 -7 -7 -106 c-4 -59 -13 -188 -21 -287 -8 -99 -18 -214 -21 -256 l-6 -76 28 -7 c63 -16 124 -90 124 -151 0 -14 3 -25 8 -25 4 0 86 -7 182 -15 96 -8 175 -13 175 -12 1 1 10 21 20 45 23 54 64 89 121 104 48 13 48 14 59 158 10 149 35 466 40 521 l6 56 -40 11 c-22 7 -52 27 -70 47 -29 33 -55 100 -46 115 5 9 -56 17 -190 25 -49 3 -108 8 -130 11 -40 4 -40 4 -63 -46z m301 -7 c39 -4 57 -10 57 -20 0 -41 64 -123 119 -152 16 -9 21 -21 21 -52 l0 -41 -29 31 c-45 48 -106 40 -136 -19 -23 -44 -18 -69 19 -106 41 -41 64 -43 104 -9 29 25 40 24 36 -2 -1 -7 -2 -36 -3 -65 l-1 -52 -33 32 c-42 40 -87 43 -122 7 -77 -76 34 -208 113 -135 l22 21 0 -67 0 -68 -27 26 c-36 33 -67 42 -95 27 -64 -32 -77 -102 -29 -150 36 -36 70 -37 110 -3 l31 26 0 -41 c0 -38 -2 -41 -40 -52 -47 -14 -101 -60 -127 -109 -11 -19 -24 -34 -29 -34 -5 1 -61 4 -124 8 -171 10 -175 11 -190 55 -14 43 -68 104 -111 126 -25 13 -29 21 -29 55 0 22 3 40 6 40 3 0 17 -13 31 -30 52 -63 143 -25 143 60 0 83 -83 119 -143 63 l-30 -28 7 49 c3 27 6 63 6 80 l1 31 21 -28 c42 -57 113 -55 143 4 23 43 18 77 -14 110 -38 37 -76 38 -113 2 l-28 -27 1 45 c1 24 5 58 9 74 6 25 8 27 15 12 11 -26 60 -48 92 -43 33 6 73 52 73 83 0 35 -19 68 -50 86 -38 23 -53 21 -89 -9 l-31 -26 0 40 c0 37 2 40 39 51 45 13 101 63 126 112 l17 32 101 -7 c56 -3 128 -9 160 -13z m-325 -209 c28 -19 29 -67 2 -94 -23 -23 -33 -24 -63 -9 -43 23 -50 66 -17 99 24 24 48 25 78 4z m474 -41 c38 -34 11 -103 -40 -103 -57 0 -85 73 -40 104 29 21 57 20 80 -1z m-483 -190 c34 -43 7 -93 -50 -93 -30 0 -59 31 -59 62 0 26 36 58 64 58 15 0 33 -11 45 -27z m480 -47 c12 -25 11 -31 -6 -55 -26 -33 -65 -39 -92 -12 -25 25 -27 49 -5 79 24 35 84 28 103 -12z m-495 -168 c21 -30 20 -54 -4 -78 -40 -40 -102 -12 -102 46 0 52 76 75 106 32z m460 -29 c15 -12 26 -30 26 -44 0 -24 -41 -65 -65 -65 -26 0 -57 36 -57 65 0 29 31 65 57 65 7 0 24 -9 39 -21z"/> <path d="M2049 2950 c-21 -19 -22 -28 -23 -136 -1 -152 -1 -153 129 -94 138 62 153 98 65 153 -19 11 -37 23 -40 26 -8 9 -63 47 -86 59 -18 9 -26 8 -45 -8z m112 -71 c49 -34 89 -65 89 -70 0 -13 -190 -100 -201 -93 -5 2 -6 24 -4 47 3 23 7 72 11 110 3 37 8 67 11 67 2 0 45 -27 94 -61z"/> <path d="M1707 3253 c-2 -4 -8 -30 -11 -56 -9 -59 3 -77 50 -77 39 0 47 18 42 91 -3 43 -4 44 -40 47 -20 2 -38 -1 -41 -5z m53 -63 c0 -33 -3 -40 -20 -40 -21 0 -27 30 -14 64 13 33 34 17 34 -24z"/> <path d="M2552 3188 c-13 -16 -19 -109 -8 -126 10 -16 61 -15 73 1 12 15 23 101 14 115 -11 17 -67 24 -79 10z m48 -68 c0 -29 -4 -40 -15 -40 -11 0 -15 11 -15 40 0 29 4 40 15 40 11 0 15 -11 15 -40z"/> <path d="M1685 3027 c-4 -13 -5 -43 -3 -68 l3 -44 40 0 40 0 6 55 c7 65 -2 80 -47 80 -27 0 -35 -5 -39 -23z m55 -47 c0 -29 -4 -40 -15 -40 -11 0 -15 11 -15 40 0 29 4 40 15 40 11 0 15 -11 15 -40z"/> <path d="M2534 2973 c-9 -9 -14 -35 -14 -69 0 -48 2 -54 24 -60 48 -12 60 -2 69 54 5 29 6 59 4 66 -8 20 -66 26 -83 9z m56 -40 c0 -34 -12 -63 -26 -63 -10 0 -14 13 -14 40 0 33 3 40 20 40 12 0 20 -7 20 -17z"/> <path d="M1670 2820 c-6 -12 -10 -42 -8 -67 3 -44 5 -48 35 -54 40 -8 51 3 59 64 8 55 -5 77 -47 77 -18 0 -32 -7 -39 -20z m55 -51 c0 -24 -5 -35 -17 -37 -14 -3 -18 4 -18 31 0 18 3 37 7 41 15 14 28 -2 28 -35z"/> <path d="M2517 2763 c-3 -4 -8 -29 -12 -56 -9 -56 4 -77 45 -77 40 0 52 20 48 82 l-3 53 -37 3 c-20 2 -38 -1 -41 -5z m51 -60 c-2 -27 -8 -39 -20 -41 -13 -3 -18 3 -18 21 0 36 10 57 27 57 10 0 13 -10 11 -37z"/> <path d="M1656 2618 c-10 -31 -15 -104 -8 -114 12 -18 57 -25 76 -11 14 10 16 25 14 72 l-3 60 -38 3 c-24 2 -39 -1 -41 -10z m52 -61 c3 -32 0 -37 -17 -37 -16 0 -21 6 -21 24 0 63 33 74 38 13z"/> <path d="M2495 2548 c-2 -7 -5 -34 -8 -60 -5 -56 7 -71 55 -66 32 3 33 4 39 58 7 65 -2 80 -48 80 -18 0 -35 -6 -38 -12z m55 -58 c0 -29 -4 -40 -15 -40 -11 0 -15 11 -15 40 0 29 4 40 15 40 11 0 15 -11 15 -40z"/> <path d="M1642 2408 c-6 -7 -12 -35 -13 -63 -3 -47 -1 -51 26 -64 20 -9 33 -11 44 -4 21 13 36 110 20 129 -14 17 -63 18 -77 2z m48 -63 c0 -24 -5 -35 -15 -35 -10 0 -15 11 -15 35 0 24 5 35 15 35 10 0 15 -11 15 -35z"/> <path d="M2475 2327 c-4 -13 -5 -43 -3 -68 l3 -44 39 0 c37 0 40 3 48 34 5 18 8 47 6 65 -3 29 -6 31 -45 34 -37 3 -43 0 -48 -21z m65 -31 c0 -35 -10 -56 -26 -56 -10 0 -14 12 -14 40 0 33 3 40 20 40 14 0 20 -7 20 -24z"/> <path d="M1890 2040 c0 -77 1 -80 24 -80 37 0 86 20 96 40 32 60 -9 120 -81 120 l-39 0 0 -80z m81 40 c21 -12 25 -50 7 -68 -7 -7 -22 -12 -35 -12 -21 0 -23 5 -23 45 0 48 11 56 51 35z"/> <path d="M2170 2055 c-18 -22 -9 -27 46 -23 46 3 47 4 30 21 -22 21 -59 22 -76 2z"/> <path d="M2858 2059 c-21 -12 -24 -69 -6 -87 7 -7 21 -12 33 -12 30 0 45 19 45 57 0 44 -34 64 -72 42z m38 -55 c-5 -13 -10 -14 -18 -6 -6 6 -8 18 -4 28 5 13 10 14 18 6 6 -6 8 -18 4 -28z"/> </g> </svg> 